/* XPM */
static char * cell_icon_xpm[] = {
"35 33 100 2",
"  	c None",
". 	c #FFFFFF",
"+ 	c #FDFDFD",
"@ 	c #F7F7F7",
"# 	c #FAFAFA",
"$ 	c #ECECEC",
"% 	c #919191",
"& 	c #9C9C9C",
"* 	c #9E9E9E",
"= 	c #9D9D9D",
"- 	c #9A9A9A",
"; 	c #B5B5B5",
"> 	c #E5E5E5",
", 	c #777777",
"' 	c #B3B3B3",
") 	c #C5C5C5",
"! 	c #C4C4C4",
"~ 	c #999999",
"{ 	c #9B9B9B",
"] 	c #E4E4E4",
"^ 	c #7D7D7D",
"/ 	c #E2E2E2",
"( 	c #989898",
"_ 	c #797979",
": 	c #DFDFDF",
"< 	c #FCFCFC",
"[ 	c #B0B0B0",
"} 	c #949494",
"| 	c #E3E3E3",
"1 	c #757575",
"2 	c #DEDEDE",
"3 	c #ADADAD",
"4 	c #929292",
"5 	c #707070",
"6 	c #DDDDDD",
"7 	c #ABABAB",
"8 	c #8E8E8E",
"9 	c #E1E1E1",
"0 	c #6C6C6C",
"a 	c #A8A8A8",
"b 	c #8B8B8B",
"c 	c #E0E0E0",
"d 	c #686868",
"e 	c #DBDBDB",
"f 	c #A6A6A6",
"g 	c #878787",
"h 	c #636363",
"i 	c #A3A3A3",
"j 	c #848484",
"k 	c #DCDCDC",
"l 	c #515151",
"m 	c #D7D7D7",
"n 	c #767676",
"o 	c #3F3F3F",
"p 	c #D1D1D1",
"q 	c #8D8D8D",
"r 	c #666666",
"s 	c #3D3D3D",
"t 	c #656565",
"u 	c #363636",
"v 	c #D9D9D9",
"w 	c #7C7C7C",
"x 	c #646464",
"y 	c #212121",
"z 	c #4B4B4B",
"A 	c #585858",
"B 	c #565656",
"C 	c #575757",
"D 	c #3C3C3C",
"E 	c #161616",
"F 	c #151515",
"G 	c #181818",
"H 	c #191919",
"I 	c #404040",
"J 	c #292929",
"K 	c #1C1C1C",
"L 	c #D6D6D6",
"M 	c #7F7F7F",
"N 	c #484848",
"O 	c #B1B1B1",
"P 	c #787878",
"Q 	c #3A3A3A",
"R 	c #818181",
"S 	c #979797",
"T 	c #595959",
"U 	c #2B2B2B",
"V 	c #4D4D4D",
"W 	c #BBBBBB",
"X 	c #606060",
"Y 	c #626262",
"Z 	c #141414",
"` 	c #131313",
" .	c #2C2C2C",
"..	c #1A1A1A",
"+.	c #414141",
"@.	c #454545",
"#.	c #444444",
"$.	c #F6F6F6",
"%.	c #CDCDCD",
"&.	c #CFCFCF",
". . . . . . . . . . . . . . . . . . . . . . . . . . . . . . . . . . . ",
". . . . . . . . . . . . . . . . . . . . . . . . . . . . . . . . . . . ",
". . . . . . . . . . . . . . . . . . . . . . . . . . . . . . . . . . . ",
". . . . . . . . . . . . . . . . . . . . . . . . . . . . . . . . . . . ",
". . . . . . . . . . . . . . . . . . . . . . . . . . . . . . . . . . . ",
". . . . . . . . . . . . . . . . . . . . . . . . . . . . . . . . . . . ",
". . . . . . . . . . . + @ @ @ @ @ @ @ @ @ @ @ # . . . . . . . . . . . ",
". . . . . . . . . . . $ % & * * * * * * * = - ; . . . . . . . . . . . ",
". . . . . . . . . . . > , ' ) ) ) ) ) ) ) ! ~ { . . . . . . . . . . . ",
". . . . . . . . . . . ] ^ / . . . . . . . . ' ( . . . . . . . . . . . ",
". . . . . . . . . . . ] _ : . . . . . . . < [ } . . . . . . . . . . . ",
". . . . . . . . . . . | 1 2 . . . . . . . < 3 4 . . . . . . . . . . . ",
". . . . . . . . . . . / 5 6 . . . . . . . < 7 8 . . . . . . . . . . . ",
". . . . . . . . . . . 9 0 6 . . . . . . . < a b . . . . . . . . . . . ",
". . . . . . . . . . . c d e . . . . . . . + f g . . . . . . . . . . . ",
". . . . . . . . . . . : h e . . . . . . . < i j . . . . . . . . . . . ",
". . . . . . . . . . . k l m . . . . . . . < ~ n . . . . . . . . . . . ",
". . . . . . . . . . . m o p . . . . . . . < q r . . . . . . . . . . . ",
". . . . . . . . . . . m s p . . . . . . . < q t . . . . . . . . . . . ",
". . . . . . . . . . . m u ; 6 k k k k k k v w x . . . . . . . . . . . ",
". . . . . . . . . . . m y z A A A B C A A C D t . . . . . . . . . . . ",
". . . . . . . . . . . m E E F G H I J H E F K t . . . . . . . . . . . ",
". . . . . . . . . . . L J M ( N l O P Q R S T h . . . . . . . . . . . ",
". . . . . . . . . . . L U b a V A W M s 8 f X Y . . . . . . . . . . . ",
". . . . . . . . . . . L Z Z ` G H N  .G F ` ..h . . . . . . . . . . . ",
". . . . . . . . . . . 2 +.@.@.@.@.#.@.@.@.@.N R . . . . . . . . . . . ",
". . . . . . . . . . . $.%.&.&.&.&.&.&.&.&.&.&.2 . . . . . . . . . . . ",
". . . . . . . . . . . . . . . . . . . . . . . . . . . . . . . . . . . ",
". . . . . . . . . . . . . . . . . . . . . . . . . . . . . . . . . . . ",
". . . . . . . . . . . . . . . . . . . . . . . . . . . . . . . . . . . ",
". . . . . . . . . . . . . . . . . . . . . . . . . . . . . . . . . . . ",
". . . . . . . . . . . . . . . . . . . . . . . . . . . . . . . . . . . ",
". . . . . . . . . . . . . . . . . . . . . . . . . . . . . . . . . . . "};
